<svg xmlns="http://www.w3.org/2000/svg" viewBox="0 0 320 120" role="img" aria-labelledby="fitmotion-title">
  <title id="fitmotion-title">Fitmotion logo</title>
  <defs>
    <linearGradient id="fitmotion-glow" x1="0%" y1="0%" x2="100%" y2="100%">
      <stop offset="0%" stop-color="#25f4d2" />
      <stop offset="100%" stop-color="#0b8bd0" />
    </linearGradient>
  </defs>
  <g transform="translate(24 12)">
    <circle cx="56" cy="48" r="44" fill="#0b1016" />
    <path
      fill="url(#fitmotion-glow)"
      d="M94 48.5c-4.8-18.5-21-30-36.8-30C39.5 18.5 26 31.7 26 48.6 26 66.8 40.6 81 58.8 81c11.6 0 21.8-6.6 27-16.7-4.9 3.5-11 5.6-17.6 5.6-18 0-32.5-14.7-32.5-32.7 0-5.4 1.2-10.4 3.5-15-0.3 17.5 13.3 31.6 30.9 31.6 9.2 0 17.3-4 23.1-10.3z"
    />
    <path
      fill="#051c22"
      opacity="0.85"
      d="M71.7 48.2c-4-7.2-12.2-11.1-20.5-9-7.8 2-13.5 9.2-13.5 17.4 0 10.2 8.2 18.6 18.5 18.6 9.3 0 17-7 18.2-16.2-3.5 3.1-8.1 4.8-12.9 4.8-10.8 0-19.6-8.6-19.6-19.3 0-2.5 0.5-4.9 1.3-7.1 7.3-4.5 17.4-3.5 24.5 3.6z"
    />
  </g>
  <text
    x="128"
    y="82"
    fill="#0b1016"
    font-family="'Inter', 'Poppins', 'Segoe UI', 'Helvetica Neue', Arial, sans-serif"
    font-size="52"
    font-weight="700"
    letter-spacing="0.5"
  >
    fitmoti<tspan fill="#12d2c7">o</tspan>n
  </text>
</svg>
