<svg xmlns="http://www.w3.org/2000/svg" viewBox="0 0 320 320" role="img" aria-labelledby="fitmotion-logo-title">
  <title id="fitmotion-logo-title">Fitmotion logo</title>
  <defs>
    <linearGradient id="fitmotion-ring" x1="0%" y1="0%" x2="100%" y2="100%">
      <stop offset="0%" stop-color="#23f7d6" />
      <stop offset="48%" stop-color="#21d1cf" />
      <stop offset="100%" stop-color="#0b7dd0" />
    </linearGradient>
    <linearGradient id="fitmotion-core" x1="22%" y1="14%" x2="88%" y2="88%">
      <stop offset="0%" stop-color="#102235" />
      <stop offset="100%" stop-color="#071220" />
    </linearGradient>
    <linearGradient id="fitmotion-swoosh" x1="0%" y1="0%" x2="100%" y2="0%">
      <stop offset="0%" stop-color="#23f7d6" />
      <stop offset="100%" stop-color="#12b5ff" />
    </linearGradient>
    <filter id="fitmotion-glow" x="-40%" y="-40%" width="180%" height="180%">
      <feGaussianBlur in="SourceGraphic" stdDeviation="18" result="blur" />
      <feColorMatrix in="blur" type="matrix"
        values="0 0 0 0 0.11  0 0 0 0 0.82  0 0 0 0 0.76  0 0 0 0.4 0" />
    </filter>
  </defs>
  <g fill="none" stroke-linecap="round" stroke-linejoin="round">
    <circle cx="160" cy="160" r="148" stroke="url(#fitmotion-ring)" stroke-width="16" opacity="0.18"
      filter="url(#fitmotion-glow)" />
    <circle cx="160" cy="160" r="126" fill="url(#fitmotion-core)" stroke="#0b1724" stroke-width="2" />
    <path d="M96 192c24 46 100 70 144 18" stroke="url(#fitmotion-swoosh)" stroke-width="22" opacity="0.4" />
    <path d="M98 126c24-36 76-60 128-36" stroke="#0fe6d4" stroke-width="18" opacity="0.25" />
  </g>
  <g fill="url(#fitmotion-swoosh)">
    <path d="M186 86h-64a14 14 0 0 0 0 28h44c16.2 0 26 8.2 26 21.2S182.2 156 166 156h-46a14 14 0 0 0 0 28h41.4c12.2 0 18.6 6.2 18.6 15.4 0 9.9-7.8 16.6-19.6 16.6h-42.4a14 14 0 0 0 0 28h48.8c30.2 0 54-18.8 54-47 0-21.6-12.4-36.6-32.4-41.5 15.4-6.7 24.6-19.8 24.6-36.9C213 101 202 86 186 86Z" />
  </g>
  <g fill="#12b5ff" opacity="0.75">
    <path d="M232 112c-4.4-12.4-13.5-21.4-25.4-26a4 4 0 0 0-4.2 6.8c8.8 6.6 13.8 16 13.8 27.2 0 12-5.8 21.4-16 26.8a4 4 0 0 0 1.2 7.4c16 4.2 26.6 17.1 26.6 34 0 12.5-5.6 23-15.9 30.2a4 4 0 0 0 4.6 6.5C235 215.4 246 197 246 173c0-24.8-10-46.2-28-61Z" />
  </g>
</svg>
